<svg xmlns="http://www.w3.org/2000/svg" viewBox="0 0 620 560" fill="none" aria-hidden="true">
  <defs>
    <pattern id="hatch" width="4" height="4" patternUnits="userSpaceOnUse" patternTransform="rotate(0)">
      <path d="M0 1h4" stroke="#2f7fb3" stroke-opacity=".36" stroke-width=".65"/>
    </pattern>
    <linearGradient id="fade" x1="38" y1="0" x2="590" y2="0" gradientUnits="userSpaceOnUse">
      <stop stop-color="#2f7fb3" stop-opacity=".16"/>
      <stop offset=".3" stop-color="#2f7fb3" stop-opacity=".9"/>
      <stop offset=".76" stop-color="#2f7fb3" stop-opacity=".88"/>
      <stop offset="1" stop-color="#2f7fb3" stop-opacity=".08"/>
    </linearGradient>
  </defs>
  <g stroke="url(#fade)" stroke-width="1.1" stroke-linejoin="round">
    <path d="M64 122 170 60 276 122v123L170 307 64 245Z"/>
    <path d="M64 122 170 184l106-62M170 184v123M276 122v123"/>
    <path d="M276 122 370 176M276 245l94 55" stroke-dasharray="2 4" stroke-opacity=".55"/>
    <path d="M189 304 295 242 401 304v123l-106 62-106-62Z"/>
    <path d="m189 304 106 62 106-62M295 366v123M401 304v123"/>
    <path d="M401 304 494 250M401 427l93-54" stroke-dasharray="2 4" stroke-opacity=".55"/>
    <path d="m402 188 106-62 106 62v123l-106 62-106-62Z"/>
    <path d="m402 188 106 62 106-62M508 250v123M614 188v123"/>
  </g>
  <g fill="url(#hatch)">
    <path d="m170 184 106-62v53l-106 62Z"/>
    <path d="m295 366 106-62v53l-106 62Z"/>
    <path d="m508 250 106-62v53l-106 62Z"/>
  </g>
  <g fill="#1f5f9a" font-family="Arial, sans-serif" font-size="11" font-weight="700" letter-spacing=".55">
    <text x="84" y="170">BUYER SIGNAL</text>
    <text x="84" y="188" font-size="10" font-weight="400" letter-spacing="0">Research &amp; Qualification</text>
    <text x="318" y="357">REVENUE SYSTEM</text>
    <text x="318" y="375" font-size="10" font-weight="400" letter-spacing="0">Pipeline &amp; Feedback</text>
    <text x="426" y="238">TECHNICAL PROOF</text>
    <text x="426" y="256" font-size="10" font-weight="400" letter-spacing="0">Position &amp; Enablement</text>
  </g>
  <g fill="#1f5f9a">
    <circle cx="64" cy="122" r="3"/><circle cx="189" cy="304" r="3"/><circle cx="402" cy="188" r="3"/>
    <path d="m276 190 11-6-5 11M401 367l7 11-12-1M369 245l11-5-6 10"/>
  </g>
</svg>
